<?xml version="1.0"?>
<svg xmlns="http://www.w3.org/2000/svg" viewBox="0 0 50 50">
    <path d="M 38.011719 4 A 1.0001 1.0001 0 0 0 37.048828 4.6914062 L 32.074219 20 L 17.925781 20 L 12.951172 4.6914062 A 1.0001 1.0001 0 0 0 11.064453 4.6484375 L 5.0683594 20.638672 A 1.0001 1.0001 0 0 0 5.0644531 20.648438 L 2.0644531 28.648438 A 1.0001 1.0001 0 0 0 2.4121094 29.808594 L 24.404297 45.802734 L 24.412109 45.808594 A 1.0001 1.0001 0 0 0 24.414062 45.810547 A 1.0001 1.0001 0 0 0 24.455078 45.835938 A 1.0001 1.0001 0 0 0 24.496094 45.863281 A 1.0001 1.0001 0 0 0 24.503906 45.867188 A 1.0001 1.0001 0 0 0 24.509766 45.871094 A 1.0001 1.0001 0 0 0 24.527344 45.880859 A 1.0001 1.0001 0 0 0 24.542969 45.888672 A 1.0001 1.0001 0 0 0 24.607422 45.917969 A 1.0001 1.0001 0 0 0 24.609375 45.919922 A 1.0001 1.0001 0 0 0 24.677734 45.945312 A 1.0001 1.0001 0 0 0 24.681641 45.947266 A 1.0001 1.0001 0 0 0 24.734375 45.962891 A 1.0001 1.0001 0 0 0 24.759766 45.970703 A 1.0001 1.0001 0 0 0 24.761719 45.970703 A 1.0001 1.0001 0 0 0 24.820312 45.982422 A 1.0001 1.0001 0 0 0 24.898438 45.994141 A 1.0001 1.0001 0 0 0 25.021484 45.998047 A 1.0001 1.0001 0 0 0 25.128906 45.990234 A 1.0001 1.0001 0 0 0 25.169922 45.984375 A 1.0001 1.0001 0 0 0 25.179688 45.982422 A 1.0001 1.0001 0 0 0 25.197266 45.980469 A 1.0001 1.0001 0 0 0 25.212891 45.976562 A 1.0001 1.0001 0 0 0 25.242188 45.96875 A 1.0001 1.0001 0 0 0 25.283203 45.957031 A 1.0001 1.0001 0 0 0 25.294922 45.955078 A 1.0001 1.0001 0 0 0 25.306641 45.951172 A 1.0001 1.0001 0 0 0 25.359375 45.931641 A 1.0001 1.0001 0 0 0 25.412109 45.910156 A 1.0001 1.0001 0 0 0 25.416016 45.908203 A 1.0001 1.0001 0 0 0 25.429688 45.902344 A 1.0001 1.0001 0 0 0 25.455078 45.890625 A 1.0001 1.0001 0 0 0 25.517578 45.853516 A 1.0001 1.0001 0 0 0 25.533203 45.84375 A 1.0001 1.0001 0 0 0 25.541016 45.839844 A 1.0001 1.0001 0 0 0 25.587891 45.808594 L 25.599609 45.798828 L 47.587891 29.808594 A 1.0001 1.0001 0 0 0 47.935547 28.648438 L 44.945312 20.675781 A 1.0001 1.0001 0 0 0 44.935547 20.648438 L 38.935547 4.6484375 A 1.0001 1.0001 0 0 0 38.011719 4 z M 8.0664062 22 L 16.472656 22 L 22.328125 40.015625 L 8.0664062 22 z M 33.527344 22 L 41.933594 22 L 27.671875 40.015625 L 33.527344 22 z M 6.3144531 23.007812 L 19.6875 39.900391 L 4.203125 28.638672 L 6.3144531 23.007812 z M 43.685547 23.007812 L 45.796875 28.638672 L 30.3125 39.900391 L 43.685547 23.007812 z"/>
</svg>
